<svg width="128" height="128" viewBox="0 0 128 128" xmlns="http://www.w3.org/2000/svg">
  <defs>
    <linearGradient id="grad1" x1="0%" y1="0%" x2="100%" y2="100%">
      <stop offset="0%" style="stop-color:#667eea;stop-opacity:1" />
      <stop offset="100%" style="stop-color:#764ba2;stop-opacity:1" />
    </linearGradient>
  </defs>
  
  <!-- 背景 -->
  <rect width="128" height="128" rx="20" fill="url(#grad1)"/>
  
  <!-- タブのアイコン -->
  <g transform="translate(20, 20)">
    <!-- タブ1 -->
    <rect x="0" y="0" width="60" height="40" rx="8" fill="white" opacity="0.9"/>
    <rect x="0" y="0" width="60" height="20" rx="8" fill="white"/>
    <circle cx="15" cy="10" r="3" fill="#667eea"/>
    <rect x="25" y="8" width="20" height="4" rx="2" fill="#667eea"/>
    
    <!-- タブ2 -->
    <rect x="10" y="15" width="60" height="40" rx="8" fill="white" opacity="0.8"/>
    <rect x="10" y="15" width="60" height="20" rx="8" fill="white"/>
    <circle cx="25" cy="25" r="3" fill="#764ba2"/>
    <rect x="35" y="23" width="20" height="4" rx="2" fill="#764ba2"/>
    
    <!-- タブ3 -->
    <rect x="20" y="30" width="60" height="40" rx="8" fill="white" opacity="0.7"/>
    <rect x="20" y="30" width="60" height="20" rx="8" fill="white"/>
    <circle cx="35" cy="40" r="3" fill="#667eea"/>
    <rect x="45" y="38" width="20" height="4" rx="2" fill="#667eea"/>
  </g>
  
  <!-- ソート矢印 -->
  <g transform="translate(90, 50)">
    <path d="M0,0 L15,0 L12,-6 M15,0 L12,6" stroke="white" stroke-width="3" fill="none" stroke-linecap="round" stroke-linejoin="round"/>
    <path d="M0,10 L15,10 L12,4 M15,10 L12,16" stroke="white" stroke-width="3" fill="none" stroke-linecap="round" stroke-linejoin="round"/>
  </g>
</svg>
